<?xml version="1.0" standalone="no"?>
<!DOCTYPE svg PUBLIC "-//W3C//DTD SVG 20010904//EN"
 "http://www.w3.org/TR/2001/REC-SVG-20010904/DTD/svg10.dtd">
<svg version="1.0" xmlns="http://www.w3.org/2000/svg"
 width="152.000000pt" height="129.000000pt" viewBox="0 0 152.000000 129.000000"
 preserveAspectRatio="xMidYMid meet">

<g transform="translate(0.000000,129.000000) scale(0.100000,-0.100000)"
fill="#000000" stroke="none">
<path d="M983 1240 c45 -8 84 -43 96 -84 5 -17 10 -23 10 -13 3 52 -59 108
-116 106 -24 -1 -22 -2 10 -9z"/>
<path d="M906 1218 c-18 -26 -20 -47 -6 -68 7 -11 8 -6 4 16 -5 24 -1 37 15
53 12 12 17 21 12 21 -6 0 -17 -10 -25 -22z"/>
<path d="M665 1191 c-124 -76 -127 -242 -5 -340 l45 -36 -52 56 c-70 76 -88
143 -59 214 19 46 57 56 106 28 39 -22 95 -98 109 -147 5 -17 10 -24 10 -15 4
73 -113 198 -174 186 -20 -3 -22 -1 -12 13 16 27 66 52 90 46 13 -3 43 -34 69
-68 25 -35 57 -72 69 -83 l24 -20 -21 25 c-12 14 -40 53 -62 86 -53 80 -80 91
-137 55z"/>
<path d="M965 1103 c-29 -26 -37 -37 -20 -27 16 11 31 17 34 14 3 -3 13 10 24
28 10 17 17 32 15 32 -1 -1 -25 -21 -53 -47z"/>
<path d="M1054 1092 c3 -5 -6 -7 -19 -4 -14 2 -33 1 -42 -3 -10 -3 -20 -6 -23
-6 -14 -1 -40 -35 -40 -53 0 -19 1 -19 13 4 7 14 21 26 31 28 17 4 18 -1 13
-32 -5 -32 -4 -35 12 -26 10 5 21 7 23 4 3 -2 3 7 0 22 -5 27 -4 27 39 21 28
-4 38 -2 28 4 -7 5 -25 9 -38 9 -13 0 -22 2 -20 4 7 7 60 14 113 15 27 1 47 3
45 5 -10 8 -140 16 -135 8z"/>
<path d="M1120 1040 c-12 -8 -9 -10 10 -8 20 3 25 -1 24 -20 0 -14 5 -21 15
-20 8 2 18 -8 23 -22 6 -20 7 -17 3 10 -3 19 -15 43 -26 53 -24 20 -29 20 -49
7z"/>
<path d="M1131 954 c0 -11 3 -14 6 -6 3 7 2 16 -1 19 -3 4 -6 -2 -5 -13z"/>
<path d="M730 941 c14 -27 27 -34 46 -23 14 8 11 12 -16 26 -42 20 -43 20 -30
-3z"/>
<path d="M980 955 c0 -5 11 -28 25 -50 13 -22 25 -42 25 -45 0 -7 -72 -4 -125
4 -22 3 -4 -4 39 -16 44 -13 81 -29 84 -36 3 -9 -3 -10 -23 -2 -14 5 -34 10
-43 9 -9 -1 0 -6 21 -11 49 -13 42 -31 -14 -39 -24 -3 -34 -7 -23 -7 25 -2 34
-34 34 -122 0 -63 22 -96 55 -84 13 5 16 4 11 -4 -11 -18 -46 -15 -70 6 -21
17 -21 17 -2 -5 27 -32 57 -29 92 9 20 23 22 27 5 13 l-24 -20 8 25 c10 32 45
87 76 120 l24 25 -42 0 c-30 0 -49 6 -64 22 l-22 21 22 30 c11 17 21 38 21 47
0 27 -21 57 -36 51 -9 -3 -21 8 -33 32 -11 20 -20 33 -21 27z"/>
<path d="M1142 879 c2 -35 0 -44 -12 -43 -10 1 -17 -8 -18 -22 -1 -16 6 -25
27 -32 32 -11 51 0 51 30 0 23 27 23 38 1 12 -23 5 -44 -20 -64 -20 -15 -19
-16 13 -11 19 3 29 7 22 9 -8 3 -9 12 -3 27 4 13 8 31 7 41 -3 26 20 30 33 5
18 -33 -5 -84 -58 -131 -41 -37 -42 -40 -13 -23 53 30 91 83 91 125 0 43 -23
68 -48 53 -9 -6 -30 -10 -47 -9 -25 1 -31 6 -33 30 -2 15 -10 35 -18 43 -13
12 -14 8 -12 -29z m28 -69 c0 -5 -7 -10 -15 -10 -8 0 -15 5 -15 10 0 6 7 10
15 10 8 0 15 -4 15 -10z"/>
<path d="M752 875 c-14 -31 -15 -74 -3 -94 6 -9 10 8 13 50 2 35 3 65 3 67 -1
1 -7 -9 -13 -23z"/>
<path d="M405 860 c-3 -6 1 -7 9 -4 11 4 19 -3 26 -21 6 -15 13 -26 16 -23 2
3 0 17 -5 32 -11 26 -34 35 -46 16z"/>
<path d="M129 827 c64 -26 102 -69 136 -153 14 -32 25 -52 25 -44 0 27 -51
125 -83 158 -17 17 -26 32 -20 32 22 0 93 -94 114 -152 12 -32 24 -57 26 -55
8 8 -39 116 -67 156 -35 48 -95 81 -147 81 l-38 -1 54 -22z m41 3 c8 -5 11
-10 5 -10 -5 0 -17 5 -25 10 -8 5 -10 10 -5 10 6 0 17 -5 25 -10z"/>
<path d="M327 843 c-10 -9 -9 -51 2 -57 4 -3 6 6 3 21 -4 22 -2 25 13 19 15
-5 16 -4 5 9 -14 17 -14 17 -23 8z"/>
<path d="M880 830 c14 -4 34 -8 45 -8 16 0 15 2 -5 8 -14 4 -34 8 -45 8 -16 0
-15 -2 5 -8z"/>
<path d="M560 807 c3 -3 32 -12 65 -20 33 -8 69 -17 80 -21 11 -4 3 2 -17 14
-34 18 -141 41 -128 27z"/>
<path d="M482 771 c13 -17 26 -30 30 -30 4 -1 19 -6 33 -11 23 -9 25 -13 15
-25 -9 -11 -9 -15 -1 -15 18 0 25 29 11 45 -7 8 -23 15 -35 15 -13 0 -30 11
-39 25 -9 14 -21 25 -27 25 -6 0 0 -13 13 -29z"/>
<path d="M760 754 c0 -3 11 -15 25 -26 15 -11 25 -30 25 -44 0 -15 4 -23 10
-19 14 9 3 45 -23 73 -20 21 -37 29 -37 16z"/>
<path d="M842 705 c0 -16 2 -22 5 -12 2 9 2 23 0 30 -3 6 -5 -1 -5 -18z"/>
<path d="M329 707 c5 -5 19 -7 32 -5 20 3 19 5 -9 9 -20 3 -29 2 -23 -4z"/>
<path d="M397 698 c2 -5 18 -8 35 -8 17 0 28 3 24 8 -4 4 -20 7 -36 7 -15 0
-26 -3 -23 -7z"/>
<path d="M480 690 c-9 -6 -10 -10 -3 -10 6 0 15 5 18 10 8 12 4 12 -15 0z"/>
<path d="M518 683 c7 -3 16 -2 19 1 4 3 -2 6 -13 5 -11 0 -14 -3 -6 -6z"/>
<path d="M662 660 c20 -11 39 -24 42 -28 8 -13 -43 -92 -60 -92 -8 0 -14 -5
-14 -11 0 -21 26 -2 56 42 16 25 35 44 42 41 25 -8 11 7 -35 37 -25 17 -51 31
-57 31 -6 -1 6 -10 26 -20z"/>
<path d="M830 660 c0 -5 16 -22 35 -37 39 -31 43 -47 18 -77 -18 -21 -18 -21
5 -2 22 19 22 19 22 -7 0 -34 -17 -73 -51 -117 l-27 -36 31 -1 c19 0 23 1 10
4 l-22 4 22 26 c12 14 27 31 33 37 5 6 10 40 9 76 -2 62 -4 68 -40 103 -41 40
-45 42 -45 27z"/>
<path d="M1144 634 c-18 -14 -18 -15 4 -4 12 6 22 13 22 15 0 8 -5 6 -26 -11z"/>
<path d="M158 593 c7 -3 16 -2 19 1 4 3 -2 6 -13 5 -11 0 -14 -3 -6 -6z"/>
<path d="M330 595 c0 -5 5 -17 10 -25 5 -8 10 -10 10 -5 0 6 -5 17 -10 25 -5
8 -10 11 -10 5z"/>
<path d="M79 551 c-22 -21 -39 -45 -39 -52 0 -8 9 1 20 19 11 18 34 41 52 52
18 11 27 20 19 20 -7 0 -31 -17 -52 -39z"/>
<path d="M244 528 l-19 -23 23 19 c21 18 27 26 19 26 -2 0 -12 -10 -23 -22z"/>
<path d="M393 538 c-13 -6 -23 -15 -23 -21 0 -5 7 -4 15 3 9 7 44 16 78 20
l62 7 -55 1 c-30 0 -65 -4 -77 -10z"/>
<path d="M320 531 c0 -6 4 -13 10 -16 6 -3 7 1 4 9 -7 18 -14 21 -14 7z"/>
<path d="M1070 509 c0 -7 -8 -21 -17 -32 -17 -18 -17 -18 10 -6 24 11 30 10
45 -5 16 -16 16 -17 -6 -23 -18 -4 -20 -8 -11 -19 6 -8 17 -14 23 -14 6 0 4 4
-4 10 -12 8 -12 10 3 16 24 9 21 21 -13 56 -16 16 -30 24 -30 17z"/>
<path d="M180 485 c-19 -14 -44 -37 -56 -52 -26 -33 -48 -23 -41 20 3 26 2 28
-9 13 -10 -14 -10 -24 -2 -42 12 -25 32 -32 43 -14 3 5 19 8 35 6 17 -2 30 1
30 5 0 5 -7 9 -15 9 -25 0 -17 17 22 49 45 37 40 41 -7 6z"/>
<path d="M729 493 c-13 -16 -12 -17 4 -4 16 13 21 21 13 21 -2 0 -10 -8 -17
-17z"/>
<path d="M999 488 c-12 -23 -12 -23 10 -4 23 21 26 26 11 26 -5 0 -15 -10 -21
-22z"/>
<path d="M329 468 c-15 -37 -15 -98 1 -128 16 -30 84 -76 149 -100 31 -12 71
-31 90 -43 19 -11 31 -15 27 -8 -4 6 -49 32 -99 57 -104 51 -142 82 -158 131
-12 38 -5 99 13 105 9 3 9 6 1 11 -6 4 -16 -7 -24 -25z"/>
<path d="M262 470 c0 -14 2 -19 5 -12 2 6 2 18 0 25 -3 6 -5 1 -5 -13z"/>
<path d="M684 464 c-18 -14 -18 -15 4 -4 12 6 22 13 22 15 0 8 -5 6 -26 -11z"/>
<path d="M630 449 c0 -6 -6 -7 -12 -3 -7 3 24 -29 70 -72 94 -91 100 -109 50
-162 -25 -26 -28 -32 -11 -23 29 15 53 50 53 78 0 40 -22 72 -82 119 -38 30
-56 49 -48 54 8 5 7 9 -4 13 -9 4 -16 2 -16 -4z"/>
<path d="M977 453 c-4 -3 -7 -17 -7 -30 0 -18 -5 -23 -25 -23 -30 0 -33 -20
-6 -44 16 -15 25 -16 48 -8 l28 11 -35 -2 c-25 -2 -35 2 -38 16 -2 11 3 17 16
17 15 0 21 8 24 35 4 38 4 38 -5 28z"/>
<path d="M1122 394 c-7 -8 -8 -14 -3 -14 10 0 25 19 20 25 -2 1 -10 -3 -17
-11z"/>
<path d="M127 393 c-14 -13 -7 -60 11 -76 15 -14 37 -17 113 -15 l94 2 -91 5
c-104 7 -128 19 -122 63 5 30 5 31 -5 21z"/>
<path d="M1032 380 c-15 -25 2 -27 42 -6 20 10 23 15 12 19 -8 3 -17 -2 -21
-11 -7 -16 -8 -16 -14 0 -6 17 -7 16 -19 -2z"/>
<path d="M819 187 c18 -23 0 -45 -19 -22 -7 8 -19 15 -27 15 -10 0 -8 -6 8
-19 23 -19 23 -20 5 -39 -10 -12 -30 -23 -45 -25 -24 -4 -23 -4 5 -6 25 -1 39
7 63 34 36 41 37 48 14 66 -16 13 -17 12 -4 -4z"/>
<path d="M544 150 c2 -22 65 -60 100 -59 30 1 30 1 -7 10 -41 10 -84 34 -90
52 -2 7 -3 5 -3 -3z"/>
</g>
</svg>
